# xmcd CD database file
# Copyright (C) 1993-1998 Ti Kan
# 
# Track frame offsets:
#     150
#     20480
#     41020
#     65770
#     85508
# 
# Disc length: 1299 seconds
# 
# Revision: 1
# Processed by: cddbd v1.4b41PL1 Copyright (c) Steve Scherf et al.
# Submitted via: DiscPlay 4.0.4
# 
DISCID=38051105
DTITLE=[Paperclip] - Bulk Song Boek [CDOne)
DYEAR=1900
DGENRE=
TTITLE0=Het verhaal van de zee
TTITLE1=Kleur bekennen
TTITLE2=Koffie met niets
TTITLE3=Met of zonder jou
TTITLE4=Het geheim
EXTD=
EXTT0=
EXTT1=
EXTT2=
EXTT3=
EXTT4=
PLAYORDER=
